Patient4_TMGait_0pt4_01_left_34_EMG.mot
version=1
nRows=20
nColumns=33
inDegrees=no
endheader
time	1LAddLong	2LGlutMax	3LGlutMed	4LIliopsoas	5LSemiMemb	6LBicFemLong	7LRecFem	8LVastMed	9LVastLat	10LGasMed	11LTibAnt	12lTibPost	13LPeroneusLong	14LSol	15LExtDigLong	16LFlexDigLong	17RAddLong	18RGlutMax	19RGlutMed	20RIliopsoas	21RSemiMemb	22RBicFemLong	23RRecFem	24RVastMed	25RVastLat	26RGasMed	27RTibAnt	28RTibPost	29RPeroneusLong	30RSol	31RExtDigLong	32RFlexDigLong
43.075	0.034943	-0.03891	0.010223	-0.005188	-0.010986	0.01236	0.000153	-0.001831	-0.004578	-0.060577	0.044861	-0.006866	-0.080566	-0.026245	-0.073395	-0.003662	0.092468	-0.068512	0.53513	-0.093079	0.056305	-0.2681	0.26352	-0.33905	-0.13138	0.006409	0.015564	-0.010376	-0.033264	-0.047302	0.00061	-0.000458
43.076	-0.003357	-0.01358	0.027161	-0.004272	-0.017242	0.019836	0.004272	0.007172	0.002899	-0.037231	-0.013885	-0.000916	-0.046539	-0.085449	0.079498	0.003052	0.066681	-0.14725	0.53101	-0.095367	-0.26398	-0.14175	0.22217	-0.48859	-0.11246	0.012207	-0.016785	-0.008087	0.25009	-0.11963	0.007019	0.001984
43.077	-0.006714	-0.003052	0.060577	0.000763	0.014496	-0.019836	0.003967	0.004578	0.001373	0.013885	-0.04364	0.002441	-0.069885	-0.078583	0.066071	-0.006104	0.021973	-0.089722	0.24628	-0.065308	-0.45807	0.008698	0.095367	-0.46631	-0.054474	0.006714	0.053558	-0.010681	-0.050812	-0.014343	0.001984	0.003204
43.078	0.006104	-0.010071	0.112	-0.011597	0.019379	-0.11017	0.007477	-0.002136	0.003052	0.073547	-0.046082	-0.000458	-0.096436	-0.002441	0.02182	-0.001221	-0.12421	-0.10925	0.075836	0.020905	-0.71304	0.23056	-0.10101	-0.24536	-0.093994	0.005341	0.075073	-0.007782	-0.057526	-0.046692	0.003357	-0.002136
43.079	0.010223	-0.051422	0.10056	0.00824	0.005951	-0.1033	0.000305	0.002441	0.012512	0.13107	-0.030212	0.006409	-0.077515	0.085602	-0.02243	0.001221	-0.18692	-0.16327	-0.018311	0.045471	-0.23025	0.41748	-0.40512	0.003357	-0.083008	0.007782	0.033722	-0.013885	-0.18204	0.0177	0.003357	-0.006409
43.08	0.01297	-0.008698	0.082092	0.023804	0.009003	-0.098114	-0.016022	0	0.011749	0.12985	-0.014954	0.003967	-0.02655	0.037231	-0.037384	-0.000153	-0.032654	-0.15305	0.215	0.067291	0.69015	0.29892	-0.44983	-0.080872	-0.048676	0.009766	-0.020599	-0.008392	0.18631	0.003357	0.00473	-0.006104
43.081	0.012054	-0.052948	0.077667	0.011749	0.003967	0.031586	-0.002594	-0.001526	0.016022	0.13138	-0.027008	0.005951	0.076447	-0.023041	0.050812	-0.004578	0.10834	-0.13931	0.51834	0.045624	0.7579	0.16602	-0.33386	-0.16739	0.10559	0.008545	0.036621	-0.009003	0.2475	-0.029144	0.002136	-0.009003
43.082	0.00946	-0.052795	0.11719	0.012207	0.010529	0.053558	0.007477	0.00351	0.003357	0.11139	-0.007019	-0.006866	0.10849	-0.082397	0.12054	-0.009155	0.18539	-0.10651	1.01	-0.047302	0.74158	0.052185	-0.39551	-0.4187	0.31052	0.002899	0.096893	-0.013428	0.14374	-0.053864	0	-0.012817
43.083	0.001373	-0.035706	0.15289	0.002594	0.009766	0.010376	-0.007477	0.003662	0.015564	-0.18082	0.025177	-0.000916	0.11032	-0.054779	0.10803	-0.012054	0.10559	-0.011902	0.89172	-0.19989	0.37796	0.027313	-0.49301	-0.32303	0.38513	0.004578	-0.029907	-0.012512	0.13886	-0.053253	0.001373	-0.007172
43.084	0.008698	-0.024719	0.16159	-0.018311	0	0.04837	-0.010529	-0.000916	0.013733	-0.26459	0.010071	0.001373	0.051575	-0.082703	-0.019073	-0.018311	-0.12695	0.001526	0.1445	-0.17914	-0.24017	0.28931	-0.54108	0.13351	0.37079	0.012512	0.050049	-0.010834	0.37781	-0.045624	0	-0.015106
43.085	0.001068	-0.021057	0.17944	-0.00412	-0.011597	0.08316	0.016632	0.002899	0.015411	-0.023499	0.001373	0.004425	-0.002289	-0.066986	0.057983	-0.00351	-0.12756	-0.005188	0.14755	-0.058899	-0.26367	0.29831	-0.43121	0.74478	0.26443	0.014801	0.059814	-0.010529	0.14267	-0.054169	0.001831	-0.00946
43.086	0.006714	-0.029449	0.19394	0.028839	-0.018921	0.037842	0.02594	0.006256	0.008087	-0.016327	0.039215	0.015564	-0.001068	0.070953	0.21698	0.015411	-0.090179	0.019073	0.25986	-0.032959	-0.18601	0.10284	-0.40039	0.83435	0.18066	0.014038	0.43533	-0.01358	-0.028992	-0.030823	-0.005341	-0.008545
43.087	0.009003	-0.005188	0.21561	0.001984	0.023041	-0.013885	0.029297	-0.000305	0.0177	-0.057983	0.13016	0.015106	-0.007782	0.19928	0.008087	0.016327	-0.055084	0.079193	0.29221	-0.027466	0.27191	-0.054474	-0.31937	0.75363	0.015564	0.006866	0.5603	-0.010986	-0.019989	-0.049896	0.001526	-0.018311
43.088	0.003357	0.016022	0.22583	0.002441	0.046234	0.019073	0.044708	0.007782	-0.001068	-0.025635	0.14236	0.012054	-0.002747	0.11566	-0.11246	0.010071	-0.016022	-0.002441	0.22812	0.06958	0.10925	-0.2359	-0.22064	0.3775	0.072327	0.015259	0.00473	-0.010986	0.097046	-0.093079	0.002136	-0.018005
43.089	0.002441	-0.020905	0.23789	0.001221	0.012054	0.00412	0.037994	0.009918	-0.008545	0.001678	0.091248	0.003967	0.000305	0.009918	-0.01709	0.008087	-0.028687	-0.027618	0.1004	0.19119	0.058289	-0.20706	-0.2739	0.13992	0.074005	0.013885	-0.32669	-0.010529	0.094604	-0.12207	0.000916	-0.014954
43.09	-0.005035	-0.02243	0.23773	0.014648	-0.007782	-0.013275	0.027924	0.000763	-0.008392	0.077667	0.01297	0.016785	-0.001678	-0.038605	-0.17029	0.009003	-0.031586	-0.000916	-0.014191	0.18738	0.26749	-0.12955	-0.29816	0.01297	-0.073395	0.013885	-0.37033	-0.011749	0.10666	-0.12451	0.000153	-0.006104
43.091	0.010529	0.028229	0.22507	0.006561	-0.000916	-0.024719	0.000763	0.009766	-0.001373	0.099487	0.040741	0.003052	0.066833	-0.15793	0.16602	0.000458	-0.042419	-0.068512	-0.14511	0.098724	0.24323	-0.010376	-0.16144	-0.21149	-0.24414	0.009918	-0.1767	-0.010834	0.02533	-0.12451	0.001221	0.001068
43.092	-0.001068	-0.003052	0.22675	-0.003052	-0.000916	0.014496	-0.008545	0.007782	-0.001373	0.095673	0.12146	-0.003357	0.035553	-0.13351	-0.025024	0.000916	-0.024261	-0.15961	-0.2681	0.054626	0.11337	-0.065613	-0.075684	-0.45456	-0.18753	0.022583	0.1059	-0.009918	-0.070953	-0.097656	0.003967	-0.001984
43.093	-0.001678	0.010223	0.25894	-0.000305	0.008698	0.006104	-0.007629	0.0177	-0.000305	0.10376	0.057983	0.001678	0.010376	-0.10773	-0.11856	-0.003967	-0.011597	-0.12619	-0.34851	0.083466	0.11337	-0.042419	-0.050049	-0.75043	0.2945	0.00946	-0.07309	-0.014191	-0.11627	-0.11231	0.000763	0.000305
43.094	-0.009766	0.042572	0.28336	-0.000305	0.001984	0.037994	-0.015564	0.007477	0.016022	0.046997	-0.10468	0.002441	-0.010986	-0.015869	-0.071106	0.006256	-0.034332	-0.077057	-0.44769	0.13886	0.11551	0.068054	-0.030823	-0.5072	0.71671	0.00946	-0.1503	-0.009918	-0.027161	-0.103	0.002594	-0.003815
